<?xml version="1.0"?>
<svg xmlns="http://www.w3.org/2000/svg" width="26" height="26" viewBox="0 0 26 26">
    <path d="M 10.375 0 C 10.256 0 10.14825 0.01025 10.03125 0.03125 C 9.19925 0.18025 8.3 0.589 7.375 1.25 C 4.665 1.529 1.03125 3.36025 1.03125 7.65625 C 1.03125 8.67725 1.083 9.257 1.125 9.625 C 0.699 10.306 7.4014868e-17 11.636 0 14.25 C 0 14.953 0.36575 15.5765 0.96875 15.9375 L 3.8125 17.625 C 4.1305 17.815 4.4595 17.90625 4.8125 17.90625 C 4.9965 17.90625 5.198 17.89375 5.375 17.84375 C 5.387 18.00175 5.36775 18.182 5.34375 18.375 C 5.29975 18.742 5.282 18.99475 5.25 19.21875 C 5.17 19.78875 5.09375 20.17025 5.09375 20.90625 C 5.09375 22.94525 7.2725 24.76325 8.5625 25.65625 C 8.8995 25.88625 9.31175 26 9.71875 26 L 16.28125 26 C 16.68825 26 17.1025 25.88725 17.4375 25.65625 C 18.7275 24.76225 20.875 22.94525 20.875 20.90625 C 20.875 20.17025 20.831 19.78975 20.75 19.21875 C 20.719 18.99375 20.70125 18.741 20.65625 18.375 C 20.63325 18.183 20.614 18.00275 20.625 17.84375 C 20.803 17.89375 20.97225 17.90625 21.15625 17.90625 C 21.51025 17.90625 21.8705 17.815 22.1875 17.625 L 25 15.9375 C 25.604 15.5775 26 14.92175 26 14.21875 C 26 11.60575 25.301 10.306 24.875 9.625 C 24.917 9.258 24.96875 8.67725 24.96875 7.65625 C 24.96875 3.36025 21.336 1.529 18.625 1.25 C 17.701 0.589 16.79975 0.18125 15.96875 0.03125 C 15.85175 0.01025 15.744 0 15.625 0 L 10.375 0 z M 10.375 2 L 15.8125 2 C 16.6585 2.152 17.462 2.78475 18 3.21875 C 19.217 3.21875 23 3.93025 23 7.65625 C 23 9.90625 22.75325 9.7195 22.90625 10.1875 C 23.05725 10.6555 24 11.30175 24 14.21875 L 21.1875 15.90625 C 20.1565 15.05125 20.045 12.225 20 12 C 19.939 13.543 19.5055 14.899 19.1875 15.75 C 18.8675 16.6 18.50425 17.34675 18.65625 18.59375 C 18.80825 19.84175 18.875 20.04725 18.875 20.90625 C 18.875 22.20225 16.28125 24 16.28125 24 L 9.71875 24 C 9.71875 24 7.125 22.20225 7.125 20.90625 C 7.125 20.04825 7.19175 19.84175 7.34375 18.59375 C 7.49575 17.34675 7.1335 16.599 6.8125 15.75 C 6.4935 14.899 6.061 13.543 6 12 C 5.955 12.225 5.8445 15.05025 4.8125 15.90625 L 2 14.21875 C 2 11.30175 2.972 10.6555 3.125 10.1875 C 3.279 9.7195 3.03125 9.90625 3.03125 7.65625 C 3.03125 3.92925 6.908 3.21875 8.125 3.21875 C 8.663 2.78475 9.529 2.152 10.375 2 z M 13 8.03125 C 13 8.03125 12.6505 11.047 12.3125 11.25 C 12.0805 11.39 11.092 11.74875 9.625 11.84375 C 8.83 11.89675 8.4265 11.998 7.5625 11.5 C 6.6835 10.994 5.4375 8.8125 5.4375 8.8125 C 5.4375 8.8125 5.82425 10.412 6.15625 11 C 7.24425 12.925 8.939 13.03125 9.75 13.03125 C 10.814 13.03025 13 13.0155 13 11.8125 C 13 13.0315 15.339 13.03125 16.25 13.03125 C 18.159 13.03125 18.92375 12.9615 19.84375 11.1875 C 20.15475 10.5895 20.5625 8.90625 20.5625 8.90625 C 20.5625 8.90625 19.34975 11.02425 18.46875 11.53125 C 17.60775 12.03025 17.17 11.926 16.375 11.875 C 14.908 11.779 14.02875 11.47025 13.84375 11.28125 C 13.65875 11.08925 13 8.03125 13 8.03125 z"/>
</svg>
