<?xml version="1.0"?>
<svg xmlns="http://www.w3.org/2000/svg" width="26" height="26" viewBox="0 0 26 26">
    <path style="text-indent:0;text-align:start;line-height:normal;text-transform:none;block-progression:tb;-inkscape-font-specification:Bitstream Vera Sans" d="M 13 0 C 7.4886661 0 3 4.4886661 3 10 L 1 10 L 1 12 L 3 12 L 3 14.5 C 3 17.992646 4.9939698 20.354151 7.71875 21.40625 A 1.0040202 1.0040202 0 0 0 8.03125 21.46875 C 8.2727667 24.004777 10.400819 26 13 26 C 15.588437 26 17.712655 24.020978 17.96875 21.5 A 1.0001 1.0001 0 0 0 18.25 21.40625 C 20.987764 20.358052 23 18.003671 23 14.5 L 23 12 L 25 12 L 25 10 L 23 10 C 23 4.4886661 18.511334 0 13 0 z M 13 2 C 17.430666 2 21 5.5693339 21 10 L 21 14.5 C 21 17.246959 19.807786 18.625138 17.71875 19.46875 C 17.065559 17.467423 15.219154 16 13 16 C 10.780846 16 8.9344406 17.467423 8.28125 19.46875 C 6.2036817 18.622873 5 17.238205 5 14.5 L 5 10 C 5 5.5693339 8.5693339 2 13 2 z M 9.75 9.0625 C 7.8 9.0625 6.8115 10.266 6.8125 12.125 C 6.8125 13.621 7.282 14.9375 9 14.9375 C 10.858 14.9375 11.96875 13.27175 11.96875 11.59375 C 11.96875 10.09775 11.375 9.0625 9.75 9.0625 z M 16.40625 9.0625 C 15.01325 9.0625 14.03125 10.51225 14.03125 11.78125 C 14.03125 13.64025 15.33025 14.90625 17.28125 14.90625 C 18.11625 14.90625 19.1875 14.18425 19.1875 11.78125 C 19.1875 10.19425 18.03225 9.0625 16.40625 9.0625 z M 13 17 C 13.552 17 14 17.448 14 18 C 14 18.552 13.552 19 13 19 C 12.448 19 12 18.552 12 18 C 12 17.448 12.448 17 13 17 z M 10.53125 18.5 C 10.660156 18.515969 10.78675 18.556 10.90625 18.625 C 11.38425 18.901 11.55725 19.522 11.28125 20 C 11.00525 20.478 10.38425 20.651 9.90625 20.375 C 9.42825 20.099 9.25525 19.478 9.53125 19 C 9.73825 18.6415 10.144531 18.452094 10.53125 18.5 z M 15.46875 18.5 C 15.855469 18.452094 16.26175 18.6415 16.46875 19 C 16.74475 19.478 16.57175 20.099 16.09375 20.375 C 15.61575 20.651 14.99475 20.478 14.71875 20 C 14.44275 19.522 14.61575 18.901 15.09375 18.625 C 15.21325 18.556 15.339844 18.515969 15.46875 18.5 z M 10.28125 21.5 C 10.667969 21.452094 11.07425 21.6415 11.28125 22 C 11.55725 22.478 11.38425 23.099 10.90625 23.375 C 10.42825 23.651 9.80725 23.478 9.53125 23 C 9.25525 22.522 9.42825 21.901 9.90625 21.625 C 10.02575 21.556 10.152344 21.515969 10.28125 21.5 z M 15.71875 21.5 C 15.847656 21.515969 15.97425 21.556 16.09375 21.625 C 16.57175 21.901 16.74475 22.522 16.46875 23 C 16.19275 23.478 15.57175 23.651 15.09375 23.375 C 14.61575 23.099 14.44275 22.478 14.71875 22 C 14.92575 21.6415 15.332031 21.452094 15.71875 21.5 z M 13 23 C 13.552 23 14 23.448 14 24 C 14 24.552 13.552 25 13 25 C 12.448 25 12 24.552 12 24 C 12 23.448 12.448 23 13 23 z" overflow="visible" enable-background="accumulate" font-family="Bitstream Vera Sans"/>
</svg>
