<?xml version="1.0"?>
<svg xmlns="http://www.w3.org/2000/svg" width="26" height="26" viewBox="0 0 26 26">
    <path d="M 10 0 C 8.9013528 0 8 0.90135282 8 2 C 8 2.622251 8.2996359 3.1634951 8.75 3.53125 C 8.3945053 3.6683128 8.0420874 3.8291641 7.71875 4.03125 C 6.5027804 4.791231 5.6152046 6.0293861 5.0625 7.6875 A 1.0001 1.0001 0 1 0 6.9375 8.3125 C 7.3847954 6.9706139 7.9972196 6.208769 8.78125 5.71875 C 9.3624889 5.3554757 10.097885 5.1205837 11 5.03125 L 11 7 C 9 7 7 10 7 12 L 7 24 C 7 25.104 7.896 26 9 26 L 17 26 C 18.104 26 19 25.104 19 24 L 19 12 C 19 10 17 7 15 7 L 15 5 L 17.03125 5 C 17.099144 5.2573742 17.255404 5.4770548 17.4375 5.53125 L 22.5 6.875 C 23.537 7.186 24 6.716 24 5.75 L 24 2.25 C 24 1.283 23.537 0.815 22.5 1.125 L 17.4375 2.46875 C 17.2485 2.525 17.095375 2.7291563 17.03125 3 L 15 3 L 15 2 C 15 1.448 14.552 1 14 1 L 12 1 C 11.908 1 11.83463 1.0392037 11.75 1.0625 C 11.411942 0.43273528 10.760131 0 10 0 z M 10 1 C 10.558207 1 11 1.441793 11 2 C 11 2.558207 10.558207 3 10 3 C 9.441793 3 9 2.558207 9 2 C 9 1.441793 9.441793 1 10 1 z"/>
</svg>
