<?xml version="1.0"?>
<svg xmlns="http://www.w3.org/2000/svg" viewBox="0 0 50 50">
    <path style="line-height:normal;text-indent:0;text-align:start;text-decoration-line:none;text-decoration-style:solid;text-decoration-color:#000;text-transform:none;block-progression:tb;isolation:auto;mix-blend-mode:normal" d="M 5.0175781 1.9863281 A 1.0001 1.0001 0 0 0 4.0136719 3.1640625 C 4.0136719 3.1640625 5.0071637 9.3598206 9.1347656 14.076172 C 9.1512797 14.098003 9.6351416 14.737514 10.175781 15.460938 C 10.725564 16.196593 11.360206 17.069785 11.443359 17.201172 C 13.481177 20.42266 13.841592 23.887622 14.03125 28.324219 C 14.08999 29.699592 14.827457 31.009962 15.966797 31.919922 C 16.539322 32.377182 17.237746 32.724548 18.005859 32.888672 A 1 1 0 0 0 18 33 A 1 1 0 0 0 19 34 A 1 1 0 0 0 20 33 A 1 1 0 0 0 19.990234 32.873047 C 20.13815 32.840591 20.286554 32.811604 20.435547 32.763672 C 21.946979 32.277419 23.156262 31.499786 24.109375 30.847656 C 25.062488 30.195526 25.842887 29.707556 26.035156 29.664062 C 30.509741 28.650713 32.695963 29.330089 35.386719 28.759766 C 36.524568 28.517935 37.523329 27.987289 38.308594 27.375 C 38.883673 26.926597 39.196675 26.398397 39.511719 25.863281 C 40.126325 25.758491 40.756311 25.637997 41.394531 25.25 C 42.109313 24.815013 42.618676 24.127696 42.861328 23.332031 C 43.103816 22.536904 43.053183 21.580586 42.519531 20.779297 C 42.121874 20.182214 41.317396 19.949637 40.648438 20.029297 C 40.02667 20.103337 39.380721 20.364952 38.628906 20.767578 C 38.350765 20.841705 37.38983 20.969211 36.306641 21.001953 C 35.197029 21.035493 33.912439 20.997953 32.833984 20.861328 C 30.968655 20.625341 28.029712 19.877494 26.439453 19.101562 A 1.0001 1.0001 0 0 0 26.4375 19.101562 C 23.68886 17.760876 23.228297 16.378998 22.855469 15.175781 A 1.0001 1.0001 0 0 0 22.849609 15.160156 C 21.651263 11.506869 20.998047 2.9296875 20.998047 2.9296875 A 1.0005207 1.0005207 0 1 0 19.001953 3.0703125 C 19.001953 3.0703125 19.542852 11.478916 20.945312 15.767578 C 20.945642 15.768678 20.946866 15.770384 20.947266 15.771484 C 21.366917 17.124314 22.347039 19.330406 25.560547 20.898438 C 27.532288 21.860505 30.479361 22.57969 32.582031 22.845703 C 33.808576 23.001083 35.1693 23.038162 36.367188 23.001953 C 37.565075 22.965743 38.530759 22.885536 39.232422 22.679688 A 1.0001 1.0001 0 0 0 39.435547 22.595703 C 40.127441 22.212625 40.631874 22.051949 40.869141 22.021484 C 40.974212 22.243114 41.031507 22.473753 40.947266 22.75 C 40.847666 23.076585 40.598687 23.393003 40.355469 23.541016 C 39.867464 23.837692 39.466206 23.938448 38.882812 24.007812 A 1.0001 1.0001 0 0 0 38.048828 24.689453 C 38.011848 24.802979 37.651064 25.351664 37.080078 25.796875 C 36.509093 26.242086 35.747853 26.639518 34.970703 26.804688 C 32.877459 27.248363 30.383166 26.628241 25.59375 27.712891 C 24.588019 27.940397 23.889356 28.575396 22.980469 29.197266 C 22.071582 29.819136 21.036833 30.468628 19.822266 30.859375 C 18.788669 31.191887 17.922004 30.922215 17.214844 30.357422 C 16.507683 29.792632 16.057555 28.899908 16.029297 28.238281 C 15.836954 23.738878 15.460997 19.813325 13.132812 16.132812 C 12.884965 15.7412 12.332311 15.006265 11.777344 14.263672 C 11.222377 13.521078 10.708984 12.84375 10.708984 12.84375 A 1.0001 1.0001 0 0 0 10.664062 12.789062 C 6.9896696 8.6114169 5.9863281 2.8359375 5.9863281 2.8359375 A 1.0001 1.0001 0 0 0 5.0175781 1.9863281 z M 23.015625 31.988281 A 1.0001 1.0001 0 0 0 22.105469 33.447266 L 28.132812 45.501953 L 26.242188 45.029297 A 1.0004596 1.0004596 0 1 0 25.757812 46.970703 L 29.757812 47.970703 A 1.0001 1.0001 0 0 0 29.789062 47.976562 A 1.0001163 1.0001163 0 0 0 29.804688 47.980469 A 1.0001 1.0001 0 0 0 29.982422 48 A 1.0001163 1.0001163 0 0 0 29.992188 48 A 1.0001 1.0001 0 0 0 30.029297 47.998047 A 1.0001163 1.0001163 0 0 0 30.054688 47.998047 A 1.0001 1.0001 0 0 0 30.0625 47.998047 A 1.0001163 1.0001163 0 0 0 30.154297 47.988281 A 1.0001 1.0001 0 0 0 30.166016 47.986328 A 1.0001163 1.0001163 0 0 0 30.216797 47.976562 A 1.0001 1.0001 0 0 0 30.289062 47.957031 A 1.0001163 1.0001163 0 0 0 30.347656 47.9375 A 1.0001 1.0001 0 0 0 30.382812 47.923828 A 1.0001163 1.0001163 0 0 0 30.408203 47.912109 A 1.0001 1.0001 0 0 0 30.472656 47.880859 A 1.0001163 1.0001163 0 0 0 30.527344 47.849609 A 1.0001 1.0001 0 0 0 30.537109 47.841797 A 1.0001163 1.0001163 0 0 0 30.609375 47.792969 A 1.0001 1.0001 0 0 0 30.638672 47.769531 A 1.0001163 1.0001163 0 0 0 30.685547 47.728516 A 1.0001 1.0001 0 0 0 30.693359 47.720703 A 1.0001163 1.0001163 0 0 0 30.736328 47.677734 A 1.0001 1.0001 0 0 0 30.779297 47.626953 A 1.0001163 1.0001163 0 0 0 30.816406 47.578125 A 1.0001 1.0001 0 0 0 30.837891 47.546875 A 1.0001163 1.0001163 0 0 0 30.849609 47.527344 A 1.0001 1.0001 0 0 0 30.888672 47.460938 A 1.0001163 1.0001163 0 0 0 30.896484 47.443359 A 1.0001 1.0001 0 0 0 30.929688 47.369141 A 1.0001163 1.0001163 0 0 0 30.933594 47.357422 A 1.0001 1.0001 0 0 0 30.970703 47.242188 L 31.970703 43.242188 A 1.0001 1.0001 0 0 0 31.033203 41.986328 A 1.0001 1.0001 0 0 0 30.029297 42.757812 L 29.685547 44.134766 L 23.894531 32.552734 A 1.0001 1.0001 0 0 0 23.015625 31.988281 z M 3 32 A 1 1 0 0 0 2 33 A 1 1 0 0 0 3 34 A 1 1 0 0 0 4 33 A 1 1 0 0 0 3 32 z M 7 32 A 1 1 0 0 0 6 33 A 1 1 0 0 0 7 34 A 1 1 0 0 0 8 33 A 1 1 0 0 0 7 32 z M 11 32 A 1 1 0 0 0 10 33 A 1 1 0 0 0 11 34 A 1 1 0 0 0 12 33 A 1 1 0 0 0 11 32 z M 15 32 A 1 1 0 0 0 14 33 A 1 1 0 0 0 15 34 A 1 1 0 0 0 16 33 A 1 1 0 0 0 15 32 z M 27 32 A 1 1 0 0 0 26 33 A 1 1 0 0 0 27 34 A 1 1 0 0 0 28 33 A 1 1 0 0 0 27 32 z M 31 32 A 1 1 0 0 0 30 33 A 1 1 0 0 0 31 34 A 1 1 0 0 0 32 33 A 1 1 0 0 0 31 32 z M 35 32 A 1 1 0 0 0 34 33 A 1 1 0 0 0 35 34 A 1 1 0 0 0 36 33 A 1 1 0 0 0 35 32 z M 39 32 A 1 1 0 0 0 38 33 A 1 1 0 0 0 39 34 A 1 1 0 0 0 40 33 A 1 1 0 0 0 39 32 z M 43 32 A 1 1 0 0 0 42 33 A 1 1 0 0 0 43 34 A 1 1 0 0 0 44 33 A 1 1 0 0 0 43 32 z M 47 32 A 1 1 0 0 0 46 33 A 1 1 0 0 0 47 34 A 1 1 0 0 0 48 33 A 1 1 0 0 0 47 32 z"/>
</svg>
