<?xml version="1.0"?>
<svg xmlns="http://www.w3.org/2000/svg" width="24" height="24" viewBox="0 0 24 24">
    <path d="M 12 0 C 5.3 1.1842379e-15 1 4.00625 1 8.90625 C 1 11.70625 2.2875 14.5875 2.6875 15.6875 C 2.5875 16.5875 2.7875 17.40625 3.1875 17.90625 C 3.9875 18.80625 6.8125 19.10625 6.8125 20.40625 C 6.8125 21.90625 7.3125 22.5875 8.3125 23.1875 C 8.6125 23.5875 9.0125 23.69375 9.3125 23.59375 C 9.6125 23.99375 10.19375 24.1125 10.59375 23.8125 C 10.99375 24.1125 11.60625 24.1125 11.90625 23.8125 C 11.95625 23.775 11.972656 23.694727 12 23.625 C 12.027344 23.694727 12.04375 23.775 12.09375 23.8125 C 12.39375 24.1125 13.00625 24.1125 13.40625 23.8125 C 13.80625 24.1125 14.3875 23.99375 14.6875 23.59375 C 14.9875 23.69375 15.3875 23.5875 15.6875 23.1875 C 16.6875 22.5875 17.1875 21.90625 17.1875 20.40625 C 17.1875 19.10625 20.0125 18.80625 20.8125 17.90625 C 21.2125 17.40625 21.4125 16.5875 21.3125 15.6875 C 21.7125 14.5875 23 11.70625 23 8.90625 C 23 4.00625 18.7 1.1842379e-15 12 0 z M 12 2 C 16.4 2 21.3125 3.69375 21.3125 9.09375 C 21.3125 11.59375 20.9875 12.2875 20.6875 13.1875 C 20.5875 11.3875 19.09375 10.3125 19.09375 10.3125 C 19.09375 10.3125 20.59375 15.2 19.09375 16.5 C 18.89375 16.7 18.30625 16.9875 17.90625 17.1875 C 16.80625 17.5875 15.40625 18.7125 15.40625 20.3125 C 15.40625 21.6125 15.20625 22.10625 14.40625 21.90625 C 14.30625 22.50625 13.4125 22.5 13.3125 22 C 13.1125 22.5 12.29375 22.5 12.09375 22 C 12.09375 22 12.0396 22.27165 12 22.46875 C 11.9604 22.27165 11.90625 22 11.90625 22 C 11.70625 22.5 10.8875 22.5 10.6875 22 C 10.5875 22.5 9.69375 22.50625 9.59375 21.90625 C 8.79375 22.10625 8.59375 21.6125 8.59375 20.3125 C 8.59375 18.7125 7.19375 17.5875 6.09375 17.1875 C 5.69375 16.9875 5.10625 16.7 4.90625 16.5 C 3.40625 15.2 4.90625 10.3125 4.90625 10.3125 C 4.90625 10.3125 3.4125 11.3875 3.3125 13.1875 C 3.0125 12.2875 2.6875 11.59375 2.6875 9.09375 C 2.6875 3.69375 7.6 2 12 2 z M 8.53125 11.03125 C 7.509375 11.078125 6.6875 11.7125 6.3125 12.6875 C 5.6125 14.6875 6.29375 15.6125 7.09375 15.8125 C 8.79375 16.4125 10.40625 15.69375 10.90625 14.09375 C 11.30625 13.09375 10.79375 11.5875 9.59375 11.1875 C 9.21875 11.0625 8.871875 11.015625 8.53125 11.03125 z M 15.46875 11.03125 C 15.128125 11.015625 14.78125 11.0625 14.40625 11.1875 C 13.20625 11.5875 12.69375 13.09375 13.09375 14.09375 C 13.59375 15.69375 15.20625 16.4125 16.90625 15.8125 C 17.70625 15.6125 18.3875 14.6875 17.6875 12.6875 C 17.3125 11.7125 16.490625 11.078125 15.46875 11.03125 z M 12 15.8125 C 11.4 16.0125 10.40625 17.5125 10.40625 18.3125 C 10.40625 18.7125 10.7 18.90625 11 18.90625 C 11.5 18.90625 11.90625 18.0875 11.90625 17.6875 C 12.00625 18.0875 12.3125 18.90625 12.8125 18.90625 C 13.1125 18.90625 13.40625 18.7125 13.40625 18.3125 C 13.60625 17.6125 12.6 16.0125 12 15.8125 z"/>
</svg>
